<?xml version="1.0" encoding="UTF-8" standalone="no"?>
<!DOCTYPE svg PUBLIC "-//W3C//DTD SVG 1.0//EN" "http://www.w3.org/TR/2001/PR-SVG-20010719/DTD/svg10.dtd">
<svg width="11cm" height="6cm" viewBox="357 187 203 101" xmlns="http://www.w3.org/2000/svg" xmlns:xlink="http://www.w3.org/1999/xlink">
  <g>
    <path style="fill: #ffffff" d="M 528.323 208.669 L 528.292,207.646 L 528.185,206.622 L 527.987,205.616 L 527.697,204.611 L 527.347,203.587 L 526.935,202.599 L 526.401,201.612 L 525.837,200.678 L 525.181,199.744 L 524.479,198.81 L 523.701,197.948 L 522.832,197.087 L 521.902,196.243 L 520.941,195.434 L 519.889,194.698 L 518.79,193.962 L 517.631,193.262 L 516.442,192.615 L 515.191,192.022 L 513.895,191.448 L 512.553,190.909 L 511.165,190.442 L 509.777,190.011 L 508.328,189.616 L 506.833,189.311 L 505.354,189.006 L 503.859,188.772 L 502.304,188.593 L 500.763,188.467 L 499.208,188.377 L 497.682,188.359 L 497.682,188.359 L 496.127,188.377 L 494.571,188.467 L 493.015,188.593 L 491.49,188.772 L 489.98,189.006 L 488.501,189.311 L 487.022,189.616 L 485.588,190.011 L 484.17,190.442 L 482.812,190.909 L 481.47,191.448 L 480.158,192.022 L 478.908,192.615 L 477.688,193.262 L 476.544,193.962 L 475.461,194.698 L 474.424,195.434 L 473.417,196.243 L 472.517,197.087 L 471.663,197.948 L 470.87,198.81 L 470.138,199.744 L 469.513,200.678 L 468.918,201.612 L 468.415,202.599 L 467.988,203.587 L 467.652,204.611 L 467.378,205.616 L 467.179,206.622 L 467.042,207.646 L 467.012,208.669 L 467.012,208.669 L 467.042,209.693 L 467.179,210.752 L 467.378,211.758 L 467.652,212.781 L 467.988,213.787 L 468.415,214.739 L 468.918,215.726 L 469.513,216.696 L 470.138,217.63 L 470.87,218.528 L 471.663,219.426 L 472.517,220.288 L 473.417,221.096 L 474.424,221.904 L 475.461,222.676 L 476.544,223.394 L 477.688,224.077 L 478.908,224.723 L 480.158,225.37 L 481.47,225.926 L 482.812,226.429 L 484.17,226.932 L 485.588,227.363 L 487.022,227.722 L 488.501,228.063 L 489.98,228.333 L 491.49,228.566 L 493.015,228.746 L 494.571,228.871 L 496.127,228.961 L 497.682,228.979 L 497.682,228.979 L 499.208,228.961 L 500.763,228.871 L 502.304,228.746 L 503.859,228.566 L 505.354,228.333 L 506.833,228.063 L 508.328,227.722 L 509.777,227.363 L 511.165,226.932 L 512.553,226.429 L 513.895,225.926 L 515.191,225.37 L 516.442,224.723 L 517.631,224.077 L 518.79,223.394 L 519.889,222.676 L 520.941,221.904 L 521.902,221.096 L 522.832,220.288 L 523.701,219.426 L 524.479,218.528 L 525.181,217.63 L 525.837,216.696 L 526.401,215.726 L 526.935,214.739 L 527.347,213.787 L 527.697,212.781 L 527.987,211.758 L 528.185,210.752 L 528.292,209.693 L 528.323,208.669z"/>
    <path style="fill: #ffffff" d="M 480.265 219.336 L 480.235,218.312 L 480.143,217.289 L 480.021,216.283 L 479.792,215.26 L 479.518,214.254 L 479.198,213.266 L 478.816,212.279 L 478.359,211.345 L 477.871,210.411 L 477.306,209.477 L 476.712,208.615 L 476.056,207.753 L 475.369,206.927 L 474.607,206.101 L 473.799,205.365 L 472.975,204.611 L 472.075,203.928 L 471.175,203.282 L 470.184,202.671 L 469.193,202.115 L 468.186,201.576 L 467.134,201.109 L 466.036,200.678 L 464.937,200.283 L 463.809,199.978 L 462.665,199.672 L 461.506,199.439 L 460.332,199.259 L 459.172,199.116 L 457.952,199.044 L 456.763,199.026 L 456.763,199.026 L 455.604,199.044 L 454.399,199.116 L 453.224,199.259 L 452.035,199.439 L 450.876,199.672 L 449.732,199.978 L 448.603,200.283 L 447.505,200.678 L 446.422,201.109 L 445.37,201.576 L 444.348,202.115 L 443.357,202.671 L 442.396,203.282 L 441.465,203.928 L 440.581,204.611 L 439.742,205.365 L 438.964,206.101 L 438.202,206.927 L 437.485,207.753 L 436.829,208.615 L 436.249,209.477 L 435.67,210.411 L 435.197,211.345 L 434.74,212.279 L 434.358,213.266 L 434.023,214.254 L 433.763,215.26 L 433.535,216.283 L 433.397,217.289 L 433.306,218.312 L 433.291,219.336 L 433.291,219.336 L 433.306,220.36 L 433.397,221.419 L 433.535,222.425 L 433.763,223.43 L 434.023,224.436 L 434.358,225.406 L 434.74,226.393 L 435.197,227.363 L 435.67,228.297 L 436.249,229.195 L 436.829,230.093 L 437.485,230.954 L 438.202,231.763 L 438.964,232.571 L 439.742,233.343 L 440.581,234.043 L 441.465,234.761 L 442.396,235.39 L 443.357,236.019 L 444.348,236.593 L 445.37,237.096 L 446.422,237.599 L 447.505,237.994 L 448.603,238.389 L 449.732,238.73 L 450.876,238.999 L 452.035,239.251 L 453.224,239.412 L 454.399,239.538 L 455.604,239.628 L 456.763,239.646 L 456.763,239.646 L 457.952,239.628 L 459.172,239.538 L 460.332,239.412 L 461.506,239.251 L 462.665,238.999 L 463.809,238.73 L 464.937,238.389 L 466.036,237.994 L 467.134,237.599 L 468.186,237.096 L 469.193,236.593 L 470.184,236.019 L 471.175,235.39 L 472.075,234.761 L 472.975,234.043 L 473.799,233.343 L 474.607,232.571 L 475.369,231.763 L 476.056,230.954 L 476.712,230.093 L 477.306,229.195 L 477.871,228.297 L 478.359,227.363 L 478.816,226.393 L 479.198,225.406 L 479.518,224.436 L 479.792,223.43 L 480.021,222.425 L 480.143,221.419 L 480.235,220.36 L 480.265,219.336z"/>
    <path style="fill: #ffffff" d="M 450.647 240.059 L 450.616,239.215 L 450.586,238.389 L 450.464,237.545 L 450.311,236.719 L 450.159,235.911 L 449.93,235.103 L 449.655,234.313 L 449.366,233.504 L 449.03,232.768 L 448.649,231.996 L 448.252,231.296 L 447.825,230.577 L 447.353,229.895 L 446.834,229.266 L 446.3,228.638 L 445.736,228.063 L 445.126,227.489 L 444.5,226.95 L 443.875,226.465 L 443.204,225.98 L 442.503,225.567 L 441.786,225.172 L 441.069,224.813 L 440.306,224.508 L 439.559,224.238 L 438.781,224.023 L 438.019,223.807 L 437.21,223.682 L 436.432,223.574 L 435.624,223.502 L 434.816,223.484 L 434.816,223.484 L 434.007,223.502 L 433.199,223.574 L 432.406,223.682 L 431.628,223.807 L 430.866,224.023 L 430.073,224.238 L 429.31,224.508 L 428.578,224.813 L 427.861,225.172 L 427.144,225.567 L 426.443,225.98 L 425.772,226.465 L 425.116,226.95 L 424.521,227.489 L 423.911,228.063 L 423.347,228.638 L 422.813,229.266 L 422.294,229.895 L 421.822,230.577 L 421.379,231.296 L 420.967,231.996 L 420.617,232.768 L 420.281,233.504 L 419.961,234.313 L 419.717,235.103 L 419.488,235.911 L 419.32,236.719 L 419.183,237.545 L 419.061,238.389 L 419,239.215 L 419,240.059 L 419,240.059 L 419,240.885 L 419.061,241.747 L 419.183,242.555 L 419.32,243.381 L 419.488,244.225 L 419.717,245.015 L 419.961,245.805 L 420.281,246.578 L 420.617,247.368 L 420.967,248.086 L 421.379,248.822 L 421.822,249.523 L 422.294,250.205 L 422.813,250.851 L 423.347,251.462 L 423.911,252.073 L 424.521,252.647 L 425.116,253.15 L 425.772,253.653 L 426.443,254.12 L 427.144,254.551 L 427.861,254.946 L 428.578,255.287 L 429.31,255.61 L 430.073,255.862 L 430.866,256.113 L 431.628,256.293 L 432.406,256.454 L 433.199,256.526 L 434.007,256.598 L 434.816,256.634 L 434.816,256.634 L 435.624,256.598 L 436.432,256.526 L 437.21,256.454 L 438.019,256.293 L 438.781,256.113 L 439.559,255.862 L 440.306,255.61 L 441.069,255.287 L 441.786,254.946 L 442.503,254.551 L 443.204,254.12 L 443.875,253.653 L 444.5,253.15 L 445.126,252.647 L 445.736,252.073 L 446.3,251.462 L 446.834,250.851 L 447.353,250.205 L 447.825,249.523 L 448.252,248.822 L 448.649,248.086 L 449.03,247.368 L 449.366,246.578 L 449.655,245.805 L 449.93,245.015 L 450.159,244.225 L 450.311,243.381 L 450.464,242.555 L 450.586,241.747 L 450.616,240.885 L 450.647,240.059z"/>
    <path style="fill: #ffffff" d="M 476.208 256.023 L 476.163,255.125 L 476.071,254.21 L 475.934,253.312 L 475.705,252.414 L 475.446,251.534 L 475.11,250.672 L 474.714,249.81 L 474.256,248.948 L 473.753,248.14 L 473.204,247.332 L 472.609,246.56 L 471.938,245.787 L 471.206,245.033 L 470.443,244.333 L 469.65,243.668 L 468.796,243.022 L 467.896,242.429 L 466.951,241.855 L 465.99,241.316 L 464.983,240.795 L 463.931,240.346 L 462.848,239.933 L 461.765,239.538 L 460.652,239.197 L 459.508,238.928 L 458.334,238.658 L 457.174,238.443 L 455.985,238.281 L 454.78,238.173 L 453.56,238.102 L 452.355,238.084 L 452.355,238.084 L 451.165,238.102 L 449.945,238.173 L 448.74,238.281 L 447.551,238.443 L 446.392,238.658 L 445.217,238.928 L 444.073,239.197 L 442.96,239.538 L 441.877,239.933 L 440.794,240.346 L 439.742,240.795 L 438.735,241.316 L 437.775,241.855 L 436.814,242.429 L 435.929,243.022 L 435.075,243.668 L 434.267,244.333 L 433.504,245.033 L 432.787,245.787 L 432.116,246.56 L 431.521,247.332 L 430.957,248.14 L 430.439,248.948 L 429.996,249.81 L 429.615,250.672 L 429.295,251.534 L 429.005,252.414 L 428.807,253.312 L 428.639,254.21 L 428.547,255.125 L 428.532,256.023 L 428.532,256.023 L 428.547,256.957 L 428.639,257.855 L 428.807,258.753 L 429.005,259.651 L 429.295,260.549 L 429.615,261.393 L 429.996,262.254 L 430.439,263.134 L 430.957,263.925 L 431.521,264.733 L 432.116,265.541 L 432.787,266.277 L 433.504,267.013 L 434.267,267.75 L 435.075,268.414 L 435.929,269.042 L 436.814,269.653 L 437.775,270.21 L 438.735,270.766 L 439.742,271.269 L 440.794,271.736 L 441.877,272.167 L 442.96,272.526 L 444.073,272.867 L 445.217,273.173 L 446.392,273.406 L 447.551,273.622 L 448.74,273.801 L 449.945,273.909 L 451.165,273.981 L 452.355,273.981 L 452.355,273.981 L 453.56,273.981 L 454.78,273.909 L 455.985,273.801 L 457.174,273.622 L 458.334,273.406 L 459.508,273.173 L 460.652,272.867 L 461.765,272.526 L 462.848,272.167 L 463.931,271.736 L 464.983,271.269 L 465.99,270.766 L 466.951,270.21 L 467.896,269.653 L 468.796,269.042 L 469.65,268.414 L 470.443,267.75 L 471.206,267.013 L 471.938,266.277 L 472.609,265.541 L 473.204,264.733 L 473.753,263.925 L 474.256,263.134 L 474.714,262.254 L 475.11,261.393 L 475.446,260.549 L 475.705,259.651 L 475.934,258.753 L 476.071,257.855 L 476.163,256.957 L 476.208,256.023z"/>
    <path style="fill: #ffffff" d="M 533.432 265.289 L 533.371,264.212 L 533.249,263.134 L 533.02,262.075 L 532.685,261.015 L 532.288,259.956 L 531.8,258.932 L 531.205,257.909 L 530.549,256.903 L 529.802,255.898 L 528.948,254.946 L 528.033,254.048 L 527.042,253.114 L 525.989,252.252 L 524.845,251.426 L 523.61,250.618 L 522.359,249.846 L 521.017,249.145 L 519.614,248.463 L 518.18,247.817 L 516.655,247.224 L 515.115,246.685 L 513.513,246.165 L 511.882,245.716 L 510.189,245.338 L 508.48,244.979 L 506.742,244.674 L 505.003,244.441 L 503.219,244.225 L 501.434,244.117 L 499.635,244.01 L 497.82,244.01 L 497.82,244.01 L 496.035,244.01 L 494.236,244.117 L 492.451,244.225 L 490.667,244.441 L 488.913,244.674 L 487.189,244.979 L 485.481,245.338 L 483.788,245.716 L 482.156,246.165 L 480.555,246.685 L 478.999,247.224 L 477.489,247.817 L 476.041,248.463 L 474.653,249.145 L 473.311,249.846 L 472.045,250.618 L 470.825,251.426 L 469.681,252.252 L 468.613,253.114 L 467.622,254.048 L 466.707,254.946 L 465.868,255.898 L 465.136,256.903 L 464.465,257.909 L 463.885,258.932 L 463.382,259.956 L 462.985,261.015 L 462.65,262.075 L 462.421,263.134 L 462.284,264.212 L 462.238,265.289 L 462.238,265.289 L 462.284,266.385 L 462.421,267.462 L 462.65,268.522 L 462.985,269.599 L 463.382,270.659 L 463.885,271.664 L 464.465,272.688 L 465.136,273.693 L 465.868,274.699 L 466.707,275.651 L 467.622,276.567 L 468.613,277.465 L 469.681,278.344 L 470.825,279.188 L 472.045,279.979 L 473.311,280.751 L 474.653,281.487 L 476.041,282.169 L 477.489,282.78 L 478.999,283.391 L 480.555,283.947 L 482.156,284.414 L 483.788,284.881 L 485.481,285.294 L 487.189,285.653 L 488.913,285.923 L 490.667,286.156 L 492.451,286.371 L 494.236,286.497 L 496.035,286.605 L 497.82,286.605 L 497.82,286.605 L 499.635,286.605 L 501.434,286.497 L 503.219,286.371 L 505.003,286.156 L 506.742,285.923 L 508.48,285.653 L 510.189,285.294 L 511.882,284.881 L 513.513,284.414 L 515.115,283.947 L 516.655,283.391 L 518.18,282.78 L 519.614,282.169 L 521.017,281.487 L 522.359,280.751 L 523.61,279.979 L 524.845,279.188 L 525.989,278.344 L 527.042,277.465 L 528.033,276.567 L 528.948,275.651 L 529.802,274.699 L 530.549,273.693 L 531.205,272.688 L 531.8,271.664 L 532.288,270.659 L 532.685,269.599 L 533.02,268.522 L 533.249,267.462 L 533.371,266.385 L 533.432,265.289z"/>
    <path style="fill: #ffffff" d="M 553.183 216.175 L 553.167,215.385 L 553.076,214.577 L 552.939,213.751 L 552.71,212.961 L 552.466,212.153 L 552.13,211.381 L 551.764,210.609 L 551.337,209.872 L 550.864,209.136 L 550.315,208.418 L 549.736,207.735 L 549.095,207.053 L 548.409,206.406 L 547.677,205.76 L 546.899,205.167 L 546.091,204.611 L 545.237,204.036 L 544.337,203.533 L 543.406,203.048 L 542.43,202.599 L 541.439,202.186 L 540.417,201.827 L 539.365,201.486 L 538.297,201.181 L 537.184,200.911 L 536.101,200.696 L 534.957,200.534 L 533.813,200.373 L 532.669,200.265 L 531.525,200.229 L 530.366,200.211 L 530.366,200.211 L 529.207,200.229 L 528.063,200.265 L 526.889,200.373 L 525.776,200.534 L 524.647,200.696 L 523.518,200.911 L 522.451,201.181 L 521.353,201.486 L 520.3,201.827 L 519.294,202.186 L 518.287,202.599 L 517.326,203.048 L 516.381,203.533 L 515.511,204.036 L 514.642,204.611 L 513.803,205.167 L 513.041,205.76 L 512.309,206.406 L 511.622,207.053 L 510.997,207.735 L 510.402,208.418 L 509.884,209.136 L 509.396,209.872 L 508.953,210.609 L 508.587,211.381 L 508.267,212.153 L 507.992,212.961 L 507.794,213.751 L 507.642,214.577 L 507.565,215.385 L 507.535,216.175 L 507.535,216.175 L 507.565,216.966 L 507.642,217.774 L 507.794,218.6 L 507.992,219.39 L 508.267,220.198 L 508.587,220.97 L 508.953,221.742 L 509.396,222.461 L 509.884,223.233 L 510.402,223.915 L 510.997,224.615 L 511.622,225.298 L 512.309,225.944 L 513.041,226.591 L 513.803,227.183 L 514.642,227.758 L 515.511,228.297 L 516.381,228.818 L 517.326,229.302 L 518.287,229.751 L 519.294,230.164 L 520.3,230.523 L 521.353,230.865 L 522.451,231.17 L 523.518,231.439 L 524.647,231.655 L 525.776,231.816 L 526.889,231.978 L 528.063,232.086 L 529.207,232.122 L 530.366,232.14 L 530.366,232.14 L 531.525,232.122 L 532.669,232.086 L 533.813,231.978 L 534.957,231.816 L 536.101,231.655 L 537.184,231.439 L 538.297,231.17 L 539.365,230.865 L 540.417,230.523 L 541.439,230.164 L 542.43,229.751 L 543.406,229.302 L 544.337,228.818 L 545.237,228.297 L 546.091,227.758 L 546.899,227.183 L 547.677,226.591 L 548.409,225.944 L 549.095,225.298 L 549.736,224.615 L 550.315,223.915 L 550.864,223.233 L 551.337,222.461 L 551.764,221.742 L 552.13,220.97 L 552.466,220.198 L 552.71,219.39 L 552.939,218.6 L 553.076,217.774 L 553.167,216.966 L 553.183,216.175z"/>
    <path style="fill: #ffffff" d="M 559.649 236.701 L 559.634,235.911 L 559.558,235.103 L 559.39,234.277 L 559.192,233.486 L 558.948,232.678 L 558.612,231.906 L 558.246,231.134 L 557.834,230.416 L 557.361,229.662 L 556.812,228.961 L 556.218,228.261 L 555.608,227.596 L 554.921,226.932 L 554.204,226.286 L 553.442,225.711 L 552.603,225.136 L 551.764,224.58 L 550.88,224.077 L 549.949,223.592 L 548.988,223.143 L 548.012,222.73 L 546.975,222.353 L 545.938,222.012 L 544.886,221.742 L 543.803,221.455 L 542.69,221.239 L 541.576,221.042 L 540.463,220.898 L 539.319,220.808 L 538.175,220.755 L 537.031,220.737 L 537.031,220.737 L 535.857,220.755 L 534.713,220.808 L 533.6,220.898 L 532.471,221.042 L 531.342,221.239 L 530.229,221.455 L 529.146,221.742 L 528.094,222.012 L 527.042,222.353 L 526.02,222.73 L 525.044,223.143 L 524.098,223.592 L 523.152,224.077 L 522.268,224.58 L 521.429,225.136 L 520.59,225.711 L 519.828,226.286 L 519.126,226.932 L 518.44,227.596 L 517.799,228.261 L 517.235,228.961 L 516.671,229.662 L 516.198,230.416 L 515.786,231.134 L 515.42,231.906 L 515.1,232.678 L 514.84,233.486 L 514.642,234.277 L 514.474,235.103 L 514.398,235.911 L 514.368,236.701 L 514.368,236.701 L 514.398,237.491 L 514.474,238.299 L 514.642,239.107 L 514.84,239.897 L 515.1,240.723 L 515.42,241.496 L 515.786,242.25 L 516.198,242.986 L 516.671,243.74 L 517.235,244.459 L 517.799,245.141 L 518.44,245.805 L 519.126,246.47 L 519.828,247.116 L 520.59,247.709 L 521.429,248.266 L 522.268,248.822 L 523.152,249.307 L 524.098,249.81 L 525.044,250.259 L 526.02,250.672 L 527.042,251.031 L 528.094,251.354 L 529.146,251.66 L 530.229,251.929 L 531.342,252.144 L 532.471,252.36 L 533.6,252.486 L 534.713,252.593 L 535.857,252.647 L 537.031,252.665 L 537.031,252.665 L 538.175,252.647 L 539.319,252.593 L 540.463,252.486 L 541.576,252.36 L 542.69,252.144 L 543.803,251.929 L 544.886,251.66 L 545.938,251.354 L 546.975,251.031 L 548.012,250.672 L 548.988,250.259 L 549.949,249.81 L 550.88,249.307 L 551.764,248.822 L 552.603,248.266 L 553.442,247.709 L 554.204,247.116 L 554.921,246.47 L 555.608,245.805 L 556.218,245.141 L 556.812,244.459 L 557.361,243.74 L 557.834,242.986 L 558.246,242.25 L 558.612,241.496 L 558.948,240.723 L 559.192,239.897 L 559.39,239.107 L 559.558,238.299 L 559.634,237.491 L 559.649,236.701z"/>
    <path style="fill: #ffffff" d="M 555.242 253.671 L 555.196,252.36 L 555.135,251.013 L 554.982,249.72 L 554.784,248.391 L 554.509,247.08 L 554.204,245.805 L 553.838,244.566 L 553.396,243.327 L 552.954,242.124 L 552.405,240.957 L 551.84,239.79 L 551.2,238.694 L 550.529,237.617 L 549.827,236.593 L 549.065,235.588 L 548.226,234.672 L 547.387,233.774 L 546.518,232.912 L 545.603,232.14 L 544.657,231.421 L 543.65,230.757 L 542.659,230.128 L 541.637,229.572 L 540.57,229.069 L 539.471,228.638 L 538.389,228.297 L 537.26,227.974 L 536.162,227.74 L 535.033,227.596 L 533.905,227.489 L 532.761,227.435 L 532.761,227.435 L 531.617,227.489 L 530.473,227.596 L 529.345,227.74 L 528.231,227.974 L 527.118,228.297 L 526.02,228.638 L 524.952,229.069 L 523.884,229.572 L 522.847,230.128 L 521.841,230.757 L 520.849,231.421 L 519.904,232.14 L 518.973,232.912 L 518.104,233.774 L 517.265,234.672 L 516.457,235.588 L 515.694,236.593 L 514.962,237.617 L 514.291,238.694 L 513.681,239.79 L 513.102,240.957 L 512.553,242.124 L 512.095,243.327 L 511.668,244.566 L 511.317,245.805 L 510.997,247.08 L 510.738,248.391 L 510.539,249.72 L 510.372,251.013 L 510.295,252.36 L 510.265,253.671 L 510.265,253.671 L 510.295,255 L 510.372,256.346 L 510.539,257.639 L 510.738,258.95 L 510.997,260.243 L 511.317,261.518 L 511.668,262.793 L 512.095,264.032 L 512.553,265.217 L 513.102,266.403 L 513.681,267.57 L 514.291,268.647 L 514.962,269.725 L 515.694,270.766 L 516.457,271.736 L 517.265,272.688 L 518.104,273.586 L 518.973,274.43 L 519.904,275.202 L 520.849,275.938 L 521.841,276.603 L 522.847,277.231 L 523.884,277.788 L 524.952,278.291 L 526.02,278.704 L 527.118,279.081 L 528.231,279.368 L 529.345,279.601 L 530.473,279.763 L 531.617,279.871 L 532.761,279.925 L 532.761,279.925 L 533.905,279.871 L 535.033,279.763 L 536.162,279.601 L 537.26,279.368 L 538.389,279.081 L 539.471,278.704 L 540.57,278.291 L 541.637,277.788 L 542.659,277.231 L 543.65,276.603 L 544.657,275.938 L 545.603,275.202 L 546.518,274.43 L 547.387,273.586 L 548.226,272.688 L 549.065,271.736 L 549.827,270.766 L 550.529,269.725 L 551.2,268.647 L 551.84,267.57 L 552.405,266.403 L 552.954,265.217 L 553.396,264.032 L 553.838,262.793 L 554.204,261.518 L 554.509,260.243 L 554.784,258.95 L 554.982,257.639 L 555.135,256.346 L 555.196,255 L 555.242,253.671z"/>
    <path style="fill: #ffffff" d="M 535.811 237.868 L 535.75,236.557 L 535.598,235.228 L 535.277,233.9 L 534.866,232.589 L 534.362,231.296 L 533.722,230.003 L 532.959,228.764 L 532.105,227.507 L 531.144,226.303 L 530.092,225.154 L 528.887,224.005 L 527.621,222.892 L 526.264,221.814 L 524.8,220.773 L 523.244,219.785 L 521.612,218.851 L 519.904,217.953 L 518.104,217.145 L 516.259,216.319 L 514.307,215.601 L 512.309,214.936 L 510.265,214.308 L 508.175,213.751 L 506.01,213.266 L 503.814,212.835 L 501.602,212.458 L 499.345,212.153 L 497.088,211.919 L 494.8,211.776 L 492.466,211.668 L 490.163,211.65 L 490.163,211.65 L 487.86,211.668 L 485.557,211.776 L 483.27,211.919 L 480.982,212.153 L 478.725,212.458 L 476.513,212.835 L 474.332,213.266 L 472.167,213.751 L 470.062,214.308 L 468.034,214.936 L 466.036,215.601 L 464.083,216.319 L 462.223,217.145 L 460.454,217.953 L 458.715,218.851 L 457.083,219.785 L 455.543,220.773 L 454.078,221.814 L 452.691,222.892 L 451.425,224.005 L 450.266,225.154 L 449.183,226.303 L 448.222,227.507 L 447.353,228.764 L 446.605,230.003 L 445.965,231.296 L 445.446,232.589 L 445.034,233.9 L 444.745,235.228 L 444.592,236.557 L 444.516,237.868 L 444.516,237.868 L 444.592,239.197 L 444.745,240.526 L 445.034,241.855 L 445.446,243.148 L 445.965,244.459 L 446.605,245.716 L 447.353,246.973 L 448.222,248.23 L 449.183,249.433 L 450.266,250.618 L 451.425,251.749 L 452.691,252.863 L 454.078,253.94 L 455.543,254.946 L 457.083,255.951 L 458.715,256.903 L 460.454,257.801 L 462.223,258.609 L 464.083,259.435 L 466.036,260.153 L 468.034,260.8 L 470.062,261.446 L 472.167,261.985 L 474.332,262.47 L 476.513,262.919 L 478.725,263.26 L 480.982,263.583 L 483.27,263.817 L 485.557,263.978 L 487.86,264.086 L 490.163,264.104 L 490.163,264.104 L 492.466,264.086 L 494.8,263.978 L 497.088,263.817 L 499.345,263.583 L 501.602,263.26 L 503.814,262.919 L 506.01,262.47 L 508.175,261.985 L 510.265,261.446 L 512.309,260.8 L 514.307,260.153 L 516.259,259.435 L 518.104,258.609 L 519.904,257.801 L 521.612,256.903 L 523.244,255.951 L 524.8,254.946 L 526.264,253.94 L 527.621,252.863 L 528.887,251.749 L 530.092,250.618 L 531.144,249.433 L 532.105,248.23 L 532.959,246.973 L 533.722,245.716 L 534.362,244.459 L 534.866,243.148 L 535.277,241.855 L 535.598,240.526 L 535.75,239.197 L 535.811,237.868z"/>
    <path style="fill: #ffffff" d="M 498.003 208.508 L 528.231,203.964 L 527.835,202.959 L 527.392,201.989 L 526.859,201.019 L 526.248,200.05 L 525.562,199.098 L 524.8,198.2 L 523.991,197.32 L 523.107,196.458 L 522.161,195.632 L 521.139,194.842 L 520.072,194.07 L 518.943,193.387 L 517.769,192.705 L 516.533,192.04 L 515.237,191.466 L 513.91,190.909 L 512.553,190.37 L 511.149,189.921 L 509.701,189.508 L 508.252,189.131 L 506.742,188.808 L 505.232,188.557 L 503.692,188.323 L 502.166,188.162 L 500.611,188.072 L 499.025,188 L 497.469,188 L 495.883,188.018 L 494.342,188.126 L 492.802,188.269 L 491.246,188.467 L 489.721,188.754 L 488.242,189.024 L 486.732,189.383 L 485.298,189.796 L 483.88,190.245 L 482.522,190.73 L 481.18,191.268 L 479.869,191.843 L 478.618,192.489 L 477.444,193.154 L 476.3,193.854 L 475.186,194.608 L 474.165,195.399 L 473.189,196.207 L 472.273,197.069 L 471.45,197.948 L 470.687,198.846 L 469.955,199.762 L 469.33,200.696 L 468.766,201.684 L 468.293,202.671 L 467.896,203.677 L 467.561,204.701 L 498.003,208.508z"/>
    <path style="fill: none; fill-opacity:0; stroke-width: 0.1; stroke: #6c8f93" d="M 528.216 203.928 L 527.835,202.923 L 527.392,201.935 L 526.843,200.947 L 526.218,200.014 L 525.532,199.08 L 524.784,198.182 L 523.961,197.302 L 523.061,196.422 L 522.115,195.632 L 521.124,194.842 L 520.026,194.052 L 518.912,193.351 L 517.723,192.651 L 516.488,192.04 L 515.222,191.412 L 513.895,190.891 L 512.537,190.37 L 511.134,189.904 L 509.685,189.473 L 508.236,189.113 L 506.742,188.808 L 505.217,188.557 L 503.692,188.323 L 502.136,188.162 L 500.565,188.072 L 499.025,188 L 497.438,188 L 495.883,188.018 L 494.358,188.126 L 492.771,188.269 L 491.246,188.467 L 489.721,188.718 L 488.242,189.024 L 486.747,189.383 L 485.298,189.796 L 483.895,190.245 L 482.538,190.712 L 481.196,191.25 L 479.884,191.843 L 478.649,192.489 L 477.459,193.154 L 476.33,193.836 L 475.217,194.59 L 474.18,195.345 L 473.204,196.189 L 472.319,197.051 L 471.465,197.895 L 470.687,198.792 L 470.001,199.744 L 469.345,200.678 L 468.796,201.63 L 468.293,202.617 L 467.896,203.623 L 467.576,204.629"/>
    <path style="fill: #ffffff" d="M 456.946 219.138 L 472.167,203.426 L 471.252,202.797 L 470.26,202.186 L 469.269,201.612 L 468.232,201.109 L 467.149,200.642 L 466.051,200.211 L 464.937,199.834 L 463.794,199.529 L 462.65,199.223 L 461.475,199.008 L 460.286,198.846 L 459.096,198.703 L 457.891,198.649 L 456.702,198.631 L 455.512,198.649 L 454.307,198.757 L 453.133,198.882 L 451.943,199.098 L 450.784,199.331 L 449.64,199.654 L 448.496,199.996 L 447.398,200.373 L 446.315,200.804 L 445.263,201.289 L 444.226,201.827 L 443.25,202.438 L 442.274,203.048 L 441.359,203.713 L 440.489,204.413 L 439.635,205.167 L 438.842,205.94 L 438.08,206.73 L 437.393,207.61 L 436.737,208.454 L 436.158,209.352 L 435.594,210.303 L 435.106,211.237 L 434.679,212.207 L 434.297,213.176 L 433.977,214.182 L 433.718,215.188 L 433.535,216.247 L 433.382,217.271 L 433.291,218.294 L 433.291,219.336 L 433.306,220.36 L 433.428,221.419 L 433.58,222.443 L 456.946,219.138z"/>
    <path style="fill: none; fill-opacity:0; stroke-width: 0.1; stroke: #6c8f93" d="M 472.106 203.372 L 471.16,202.725 L 470.184,202.133 L 469.177,201.576 L 468.125,201.055 L 467.042,200.588 L 465.959,200.193 L 464.846,199.798 L 463.702,199.475 L 462.558,199.223 L 461.384,198.99 L 460.194,198.81 L 459.005,198.703 L 457.8,198.649 L 456.61,198.631 L 455.405,198.667 L 454.231,198.775 L 453.026,198.9 L 451.852,199.098 L 450.693,199.349 L 449.549,199.672 L 448.42,199.996 L 447.322,200.427 L 446.254,200.84 L 445.202,201.342 L 444.165,201.899 L 443.174,202.474 L 442.213,203.084 L 441.298,203.731 L 440.444,204.467 L 439.59,205.203 L 438.796,205.976 L 438.064,206.784 L 437.363,207.628 L 436.722,208.508 L 436.112,209.423 L 435.578,210.321 L 435.075,211.273 L 434.679,212.243 L 434.297,213.248 L 433.962,214.236 L 433.718,215.26 L 433.535,216.283 L 433.382,217.307 L 433.291,218.312 L 433.291,219.39 L 433.336,220.413 L 433.428,221.437 L 433.596,222.461"/>
    <path style="fill: #ffffff" d="M 452.691 255.844 L 428.197,255.287 L 428.197,256.203 L 428.242,257.137 L 428.349,258.088 L 428.532,258.986 L 428.776,259.902 L 429.066,260.8 L 429.432,261.698 L 429.859,262.578 L 430.332,263.44 L 430.866,264.284 L 431.476,265.11 L 432.101,265.9 L 432.818,266.672 L 433.535,267.408 L 434.343,268.127 L 435.197,268.809 L 436.051,269.438 L 436.982,270.066 L 437.958,270.659 L 438.964,271.179 L 440.017,271.682 L 441.069,272.167 L 442.167,272.562 L 443.296,272.957 L 444.455,273.298 L 445.629,273.586 L 446.803,273.819 L 448.024,274.035 L 449.228,274.16 L 450.449,274.304 L 451.699,274.358 L 452.935,274.358 L 454.17,274.322 L 455.375,274.25 L 456.595,274.142 L 457.83,273.963 L 459.035,273.747 L 460.194,273.46 L 461.369,273.173 L 462.512,272.814 L 463.626,272.418 L 464.709,271.97 L 465.761,271.503 L 466.798,271 L 467.805,270.443 L 468.75,269.833 L 452.691,255.844z"/>
    <path style="fill: none; fill-opacity:0; stroke-width: 0.1; stroke: #6c8f93" d="M 428.197 255.287 L 428.166,256.203 L 428.242,257.137 L 428.349,258.034 L 428.532,258.986 L 428.761,259.884 L 429.096,260.8 L 429.432,261.698 L 429.859,262.578 L 430.332,263.422 L 430.866,264.266 L 431.445,265.092 L 432.071,265.882 L 432.772,266.636 L 433.535,267.408 L 434.297,268.073 L 435.121,268.773 L 436.021,269.42 L 436.936,270.048 L 437.912,270.623 L 438.918,271.161 L 439.94,271.664 L 441.008,272.113 L 442.106,272.562 L 443.25,272.921 L 444.394,273.262 L 445.538,273.568 L 446.727,273.819 L 447.932,274.017 L 449.137,274.16 L 450.372,274.268 L 451.592,274.358 L 452.843,274.358 L 454.048,274.358 L 455.283,274.25 L 456.503,274.142 L 457.708,273.981 L 458.898,273.747 L 460.088,273.514 L 461.277,273.191 L 462.406,272.849 L 463.519,272.454 L 464.602,272.023 L 465.654,271.557 L 466.707,271.054 L 467.698,270.497 L 468.628,269.922"/>
    <path style="fill: #ffffff" d="M 530.702 215.798 L 552.298,220.988 L 552.634,220.198 L 552.939,219.426 L 553.167,218.636 L 553.35,217.845 L 553.457,217.037 L 553.518,216.193 L 553.518,215.403 L 553.457,214.595 L 553.35,213.805 L 553.167,212.997 L 552.939,212.207 L 552.634,211.417 L 552.313,210.644 L 551.901,209.872 L 551.444,209.118 L 550.941,208.4 L 550.376,207.681 L 549.751,206.999 L 549.08,206.335 L 548.394,205.706 L 547.631,205.078 L 546.838,204.485 L 545.999,203.928 L 545.099,203.408 L 544.199,202.923 L 543.254,202.474 L 542.263,202.025 L 541.256,201.612 L 540.204,201.271 L 539.151,200.947 L 538.038,200.678 L 536.955,200.445 L 535.811,200.229 L 534.683,200.085 L 533.539,199.942 L 532.38,199.888 L 531.236,199.816 L 530.092,199.834 L 528.933,199.888 L 527.774,199.978 L 526.63,200.085 L 525.501,200.247 L 524.373,200.445 L 523.259,200.696 L 530.702,215.798z"/>
    <path style="fill: none; fill-opacity:0; stroke-width: 0.1; stroke: #6c8f93" d="M 550.163 223.915 L 552.252,221.024 L 552.603,220.234 L 552.893,219.462 L 553.167,218.672 L 553.335,217.863 L 553.457,217.073 L 553.518,216.283 L 553.533,215.457 L 553.457,214.631 L 553.366,213.823 L 553.167,213.015 L 552.954,212.243 L 552.664,211.453 L 552.329,210.68 L 551.932,209.908 L 551.459,209.172 L 550.956,208.436 L 550.407,207.735 L 549.797,207.053 L 549.141,206.389 L 548.409,205.724 L 547.677,205.132 L 546.884,204.521 L 546.03,203.964 L 545.16,203.426 L 544.245,202.923 L 543.284,202.474 L 542.308,202.043 L 541.317,201.666 L 540.28,201.289 L 539.212,200.983 L 538.114,200.678 L 537.031,200.445 L 535.903,200.229 L 534.774,200.085 L 533.615,199.978 L 532.471,199.888 L 531.312,199.816 L 530.138,199.816 L 528.994,199.888 L 527.835,199.978 L 526.691,200.085 L 525.562,200.229 L 524.449,200.445 L 523.335,200.678"/>
    <path style="fill: #ffffff" d="M 533.752 236.916 L 558.033,243.453 L 558.521,242.591 L 558.948,241.747 L 559.298,240.867 L 559.573,239.969 L 559.802,239.071 L 559.924,238.155 L 559.969,237.24 L 559.954,236.342 L 559.878,235.408 L 559.741,234.492 L 559.497,233.594 L 559.207,232.714 L 558.856,231.852 L 558.414,230.972 L 557.911,230.128 L 557.331,229.302 L 556.706,228.494 L 556.004,227.704 L 555.242,226.95 L 533.752,236.916z"/>
    <path style="fill: none; fill-opacity:0; stroke-width: 0.1; stroke: #6c8f93" d="M 554.845 246.452 L 558.033,243.525 L 558.505,242.663 L 558.948,241.765 L 559.283,240.885 L 559.573,239.969 L 559.802,239.071 L 559.939,238.173 L 560,237.24 L 560,236.342 L 559.878,235.39 L 559.741,234.492 L 559.527,233.576 L 559.207,232.678 L 558.826,231.798 L 558.414,230.919 L 557.895,230.075 L 557.3,229.231 L 556.629,228.422 L 555.943,227.632 L 555.181,226.86 L 550.163,223.915"/>
    <path style="fill: #ffffff" d="M 532.746 254.263 L 525.074,279.188 L 526.203,279.584 L 527.331,279.925 L 528.49,280.212 L 529.68,280.428 L 530.854,280.589 L 532.014,280.643 L 533.188,280.661 L 534.378,280.589 L 535.537,280.481 L 536.711,280.266 L 537.855,279.997 L 539.029,279.691 L 540.143,279.296 L 541.256,278.811 L 542.324,278.291 L 543.406,277.698 L 544.413,277.052 L 545.435,276.333 L 546.411,275.561 L 547.341,274.753 L 548.226,273.873 L 549.08,272.957 L 549.904,271.97 L 550.681,270.964 L 551.383,269.886 L 552.084,268.809 L 552.695,267.642 L 553.274,266.475 L 553.777,265.271 L 554.25,264.032 L 554.677,262.757 L 554.998,261.5 L 555.303,260.171 L 555.547,258.843 L 555.73,257.532 L 555.836,256.185 L 555.897,254.838 L 555.897,253.491 L 555.821,252.144 L 555.714,250.816 L 555.516,249.505 L 555.272,248.158 L 554.982,246.883 L 532.746,254.263z"/>
    <path style="fill: none; fill-opacity:0; stroke-width: 0.1; stroke: #6c8f93" d="M 525.15 279.206 L 526.279,279.601 L 527.423,279.979 L 528.567,280.248 L 529.741,280.445 L 530.9,280.589 L 532.09,280.661 L 533.264,280.697 L 534.423,280.589 L 535.613,280.481 L 536.787,280.266 L 537.931,279.997 L 539.06,279.655 L 540.204,279.242 L 541.332,278.793 L 542.4,278.255 L 543.437,277.68 L 544.489,277.016 L 545.481,276.315 L 546.457,275.543 L 547.387,274.699 L 548.287,273.819 L 549.141,272.903 L 549.934,271.952 L 550.712,270.892 L 551.444,269.833 L 552.115,268.755 L 552.71,267.57 L 553.289,266.403 L 553.808,265.217 L 554.281,263.978 L 554.692,262.685 L 555.043,261.393 L 555.303,260.1 L 555.547,258.807 L 555.73,257.46 L 555.836,256.131 L 555.897,254.784 L 555.897,253.419 L 555.821,252.091 L 555.684,250.744 L 555.516,249.397 L 555.257,248.086 L 554.967,246.811"/>
    <path style="fill: #ffffff" d="M 435.67 240.059 L 434.496,223.143 L 433.641,223.233 L 432.818,223.34 L 431.979,223.538 L 431.155,223.718 L 430.332,224.005 L 429.539,224.274 L 428.761,224.615 L 427.998,225.011 L 427.251,225.406 L 426.519,225.855 L 425.833,226.375 L 425.162,226.878 L 424.521,227.471 L 423.896,228.063 L 423.301,228.674 L 422.752,229.32 L 422.233,230.003 L 421.761,230.721 L 421.303,231.439 L 420.876,232.212 L 420.525,233.002 L 420.19,233.792 L 419.869,234.582 L 419.625,235.408 L 419.427,236.252 L 419.244,237.078 L 419.137,237.94 L 419.046,238.82 L 419,239.664 L 419,240.526 L 419.046,241.406 L 419.137,242.25 L 419.244,243.112 L 419.427,243.938 L 419.656,244.782 L 419.9,245.608 L 420.205,246.398 L 420.54,247.224 L 420.922,247.978 L 421.333,248.732 L 421.806,249.487 L 422.279,250.169 L 422.813,250.851 L 423.377,251.516 L 423.957,252.144 L 424.567,252.701 L 425.238,253.258 L 425.909,253.814 L 426.595,254.281 L 427.327,254.73 L 428.059,255.161 L 435.67,240.059z"/>
    <path style="fill: none; fill-opacity:0; stroke-width: 0.1; stroke: #6c8f93" d="M 434.526 223.143 L 433.687,223.233 L 432.864,223.34 L 432.025,223.502 L 431.216,223.718 L 430.439,223.951 L 429.63,224.238 L 428.852,224.58 L 428.105,224.939 L 427.388,225.352 L 426.671,225.801 L 425.955,226.268 L 425.299,226.77 L 424.658,227.309 L 424.048,227.884 L 423.469,228.512 L 422.904,229.123 L 422.371,229.787 L 421.898,230.506 L 421.425,231.206 L 421.044,231.924 L 420.662,232.678 L 420.296,233.451 L 419.991,234.241 L 419.732,235.031 L 419.488,235.857 L 419.32,236.701 L 419.153,237.527 L 419.061,238.371 L 419,239.215 L 419,240.077 L 419,240.903 L 419.092,241.765 L 419.183,242.627 L 419.32,243.435 L 419.519,244.261 L 419.732,245.087 L 419.991,245.895 L 420.296,246.685 L 420.662,247.457 L 421.044,248.23 L 421.471,248.948 L 421.913,249.648 L 422.401,250.367 L 422.904,251.013 L 423.469,251.642 L 424.063,252.252 L 424.674,252.809 L 425.329,253.365 L 426,253.868 L 426.671,254.335 L 427.388,254.784 L 428.151,255.215"/>
    <path style="fill: #ffffff" d="M 497.499 267.283 L 462.757,269.222 L 462.985,270.21 L 463.275,271.179 L 463.672,272.167 L 464.144,273.119 L 464.709,274.071 L 465.365,274.986 L 466.081,275.884 L 466.89,276.764 L 467.774,277.626 L 468.75,278.47 L 469.772,279.242 L 470.886,280.032 L 472.045,280.769 L 473.28,281.487 L 474.592,282.151 L 475.934,282.78 L 477.352,283.355 L 478.801,283.911 L 480.311,284.414 L 481.851,284.881 L 483.453,285.312 L 485.085,285.707 L 486.732,286.03 L 488.41,286.318 L 490.133,286.551 L 491.841,286.731 L 493.595,286.874 L 495.318,286.946 L 497.103,287 L 498.842,286.982 L 500.611,286.928 L 502.349,286.785 L 504.073,286.641 L 505.796,286.425 L 507.489,286.156 L 509.152,285.869 L 510.783,285.492 L 512.4,285.096 L 513.971,284.648 L 515.511,284.181 L 516.976,283.624 L 518.409,283.067 L 519.797,282.439 L 521.124,281.774 L 522.375,281.092 L 523.595,280.374 L 524.723,279.601 L 525.791,278.847 L 526.767,278.021 L 527.697,277.177 L 528.551,276.279 L 529.314,275.417 L 530,274.484 L 530.58,273.568 L 497.499,267.283z"/>
    <path style="fill: none; fill-opacity:0; stroke-width: 0.1; stroke: #6c8f93" d="M 462.757 269.258 L 462.985,270.228 L 463.29,271.215 L 463.672,272.185 L 464.175,273.137 L 464.709,274.089 L 465.365,274.986 L 466.097,275.884 L 466.89,276.782 L 467.805,277.626 L 468.75,278.47 L 469.772,279.242 L 470.886,280.032 L 472.045,280.769 L 473.28,281.487 L 474.592,282.151 L 475.949,282.78 L 477.322,283.355 L 478.801,283.911 L 480.28,284.414 L 481.836,284.881 L 483.407,285.312 L 485.039,285.707 L 486.701,286.03 L 488.379,286.282 L 490.087,286.551 L 491.795,286.713 L 493.534,286.874 L 495.303,286.928 L 497.042,287 L 498.796,286.982 L 500.55,286.928 L 502.288,286.785 L 504.012,286.659 L 505.72,286.425 L 507.428,286.156 L 509.106,285.869 L 510.722,285.527 L 512.339,285.096 L 513.91,284.683 L 515.42,284.181 L 516.915,283.642 L 518.348,283.085 L 519.721,282.457 L 521.048,281.828 L 522.314,281.11 L 523.518,280.428 L 524.662,279.637 L 525.715,278.865 L 526.737,278.057 L 527.621,277.231 L 528.475,276.333 L 529.238,275.453 L 529.924,274.537 L 530.549,273.622"/>
  </g>
  <text font-size="28.2222" style="fill: #000000;text-anchor:start;font-family:FuturaExtended;font-style:normal;font-weight:700" x="413" y="268">
    <tspan x="413" y="268">yComA </tspan>
  </text>
  <g>
    <rect style="fill: #ff0000" x="504.17" y="216.23" width="25.8431" height="51.6863"/>
    <polygon style="fill: #ff0000" points="504.17,216.23 530.013,216.23 533.244,213 507.4,213 "/>
    <polygon style="fill: #ff0000" points="530.013,216.23 533.244,213 533.244,264.686 530.013,267.917 "/>
    <line style="fill: none; fill-opacity:0; stroke-width: 2; stroke: #ffffff" x1="504.17" y1="221.399" x2="530.013" y2="221.399"/>
    <line style="fill: none; fill-opacity:0; stroke-width: 2; stroke: #ffffff" x1="533.244" y1="218.169" x2="530.013" y2="221.399"/>
    <line style="fill: none; fill-opacity:0; stroke-width: 2; stroke: #ffffff" x1="511.923" y1="216.23" x2="511.923" y2="221.399"/>
    <line style="fill: none; fill-opacity:0; stroke-width: 2; stroke: #ffffff" x1="511.923" y1="216.23" x2="515.153" y2="213"/>
    <line style="fill: none; fill-opacity:0; stroke-width: 2; stroke: #ffffff" x1="504.17" y1="231.736" x2="530.013" y2="231.736"/>
    <line style="fill: none; fill-opacity:0; stroke-width: 2; stroke: #ffffff" x1="533.244" y1="228.506" x2="530.013" y2="231.736"/>
    <line style="fill: none; fill-opacity:0; stroke-width: 2; stroke: #ffffff" x1="522.26" y1="221.399" x2="522.26" y2="231.736"/>
    <line style="fill: none; fill-opacity:0; stroke-width: 2; stroke: #ffffff" x1="504.17" y1="242.074" x2="530.013" y2="242.074"/>
    <line style="fill: none; fill-opacity:0; stroke-width: 2; stroke: #ffffff" x1="533.244" y1="238.843" x2="530.013" y2="242.074"/>
    <line style="fill: none; fill-opacity:0; stroke-width: 2; stroke: #ffffff" x1="511.923" y1="231.736" x2="511.923" y2="242.074"/>
    <line style="fill: none; fill-opacity:0; stroke-width: 2; stroke: #ffffff" x1="504.17" y1="252.411" x2="530.013" y2="252.411"/>
    <line style="fill: none; fill-opacity:0; stroke-width: 2; stroke: #ffffff" x1="533.244" y1="249.18" x2="530.013" y2="252.411"/>
    <line style="fill: none; fill-opacity:0; stroke-width: 2; stroke: #ffffff" x1="522.26" y1="242.074" x2="522.26" y2="252.411"/>
    <line style="fill: none; fill-opacity:0; stroke-width: 2; stroke: #ffffff" x1="504.17" y1="262.748" x2="530.013" y2="262.748"/>
    <line style="fill: none; fill-opacity:0; stroke-width: 2; stroke: #ffffff" x1="533.244" y1="259.518" x2="530.013" y2="262.748"/>
    <line style="fill: none; fill-opacity:0; stroke-width: 2; stroke: #ffffff" x1="511.923" y1="252.411" x2="511.923" y2="262.748"/>
    <line style="fill: none; fill-opacity:0; stroke-width: 2; stroke: #ffffff" x1="522.26" y1="262.748" x2="522.26" y2="267.917"/>
    <line style="fill: none; fill-opacity:0; stroke-width: 1; stroke: #000000" x1="504.17" y1="216.23" x2="530.013" y2="216.23"/>
    <line style="fill: none; fill-opacity:0; stroke-width: 1; stroke: #000000" x1="530.013" y1="267.917" x2="530.013" y2="216.23"/>
    <line style="fill: none; fill-opacity:0; stroke-width: 1; stroke: #000000" x1="530.013" y1="216.23" x2="533.244" y2="213"/>
    <polyline style="fill: none; fill-opacity:0; stroke-width: 1; stroke: #000000" points="504.17,216.23 507.4,213 533.244,213 533.244,264.686 530.013,267.917 504.17,267.917 504.17,216.23 "/>
    <text font-size="12.8" style="fill: #000000;text-anchor:middle;font-family:sans-serif;font-style:normal;font-weight:normal" x="517.092" y="283.301">
      <tspan x="517.092" y="283.301"></tspan>
    </text>
  </g>
  <g>
    <path style="fill: none; fill-opacity:0; stroke-width: 2.48; stroke: #00b4ff" d="M 373.036 216.186 L 371.979,216.744 L 370.981,217.35 L 369.983,218.016 L 369.014,218.749 L 368.065,219.513 L 367.155,220.344 L 366.294,221.235 L 365.462,222.174 L 364.689,223.172 L 363.936,224.2 L 363.241,225.276 L 362.576,226.391 L 361.998,227.556 L 361.441,228.749 L 360.912,229.963 L 360.472,231.225 L 360.081,232.487 L 359.719,233.789 L 359.445,235.119 L 359.19,236.45 L 359.024,237.81 L 358.916,239.18 L 358.838,240.53 L 358.838,241.89 L 358.887,243.25 L 359.004,244.62 L 359.171,245.97 L 359.386,247.311 L 359.67,248.632 L 360.002,249.943 L 360.384,251.205 L 360.834,252.458 L 361.333,253.7 L 361.881,254.894 L 362.468,256.058 L 363.104,257.164 L 363.799,258.28 L 364.542,259.307 L 365.315,260.305 L 366.128,261.254 L 366.989,262.174 L 367.899,262.996 L 368.818,263.798 L 369.787,264.542 L 370.756,265.207 L 371.783,265.824"/>
    <path style="fill: none; fill-opacity:0; stroke-width: 2.48; stroke: #00b4ff" d="M 382.517 216 L 381.49,216.519 L 380.462,217.125 L 379.464,217.771 L 378.525,218.485 L 377.576,219.258 L 376.695,220.09 L 375.834,220.98 L 375.002,221.93 L 374.22,222.918 L 373.476,223.975 L 372.781,225.061 L 372.116,226.196 L 371.539,227.36 L 370.981,228.554 L 370.452,229.796 L 370.012,231.078 L 369.621,232.35 L 369.259,233.681 L 368.985,235.012 L 368.73,236.372 L 368.564,237.771 L 368.456,239.121 L 368.368,240.501 L 368.368,241.89 L 368.427,243.28 L 368.535,244.659 L 368.701,246.029 L 368.926,247.379 L 369.2,248.74 L 369.533,250.07 L 369.924,251.372 L 370.364,252.653 L 370.873,253.867 L 371.421,255.09 L 372.008,256.284 L 372.644,257.419 L 373.339,258.505 L 374.083,259.552 L 374.856,260.55 L 375.668,261.518 L 376.529,262.419 L 377.409,263.24 L 378.329,264.043 L 379.298,264.767 L 380.266,265.432 L 381.294,266.039"/>
    <path style="fill: none; fill-opacity:0; stroke-width: 2.48; stroke: #00b4ff" d="M 391.392 216.186 L 390.335,216.744 L 389.337,217.35 L 388.339,218.016 L 387.37,218.749 L 386.421,219.513 L 385.511,220.344 L 384.64,221.235 L 383.818,222.174 L 383.045,223.172 L 382.292,224.2 L 381.597,225.276 L 380.932,226.391 L 380.355,227.556 L 379.797,228.749 L 379.259,229.963 L 378.828,231.225 L 378.437,232.487 L 378.075,233.789 L 377.791,235.119 L 377.546,236.45 L 377.38,237.79 L 377.272,239.141 L 377.194,240.501 L 377.194,241.89 L 377.243,243.25 L 377.36,244.62 L 377.527,245.941 L 377.742,247.311 L 378.026,248.603 L 378.358,249.904 L 378.74,251.205 L 379.19,252.458 L 379.689,253.671 L 380.218,254.865 L 380.824,256.029 L 381.46,257.164 L 382.155,258.26 L 382.899,259.307 L 383.681,260.305 L 384.484,261.254 L 385.345,262.174 L 386.235,262.996 L 387.174,263.798 L 388.114,264.512 L 389.112,265.207 L 390.139,265.824"/>
    <path style="fill: none; fill-opacity:0; stroke-width: 2.48; stroke: #00b4ff" d="M 400.902 216 L 399.875,216.519 L 398.848,217.125 L 397.85,217.771 L 396.91,218.485 L 395.961,219.258 L 395.08,220.09 L 394.219,220.98 L 393.358,221.93 L 392.585,222.918 L 391.832,223.975 L 391.137,225.061 L 390.472,226.196 L 389.865,227.36 L 389.307,228.554 L 388.799,229.796 L 388.368,231.078 L 387.977,232.389 L 387.615,233.681 L 387.331,235.041 L 387.086,236.372 L 386.92,237.771 L 386.812,239.141 L 386.734,240.501 L 386.734,241.89 L 386.783,243.28 L 386.9,244.659 L 387.067,246.049 L 387.282,247.409 L 387.566,248.74 L 387.898,250.07 L 388.28,251.372 L 388.73,252.653 L 389.229,253.896 L 389.777,255.09 L 390.364,256.284 L 391,257.419 L 391.695,258.505 L 392.439,259.552 L 393.221,260.55 L 394.053,261.518 L 394.914,262.419 L 395.795,263.24 L 396.714,264.043 L 397.683,264.767 L 398.652,265.432 L 399.679,266.039"/>
    <path style="fill: none; fill-opacity:0; stroke-width: 2.48; stroke: #00b4ff" d="M 410.442 216 L 409.415,216.519 L 408.388,217.125 L 407.39,217.771 L 406.45,218.485 L 405.501,219.258 L 404.611,220.09 L 403.759,220.98 L 402.928,221.93 L 402.145,222.918 L 401.401,223.975 L 400.707,225.061 L 400.041,226.196 L 399.435,227.36 L 398.877,228.554 L 398.378,229.796 L 397.928,231.078 L 397.546,232.389 L 397.184,233.681 L 396.91,235.041 L 396.656,236.372 L 396.489,237.771 L 396.382,239.141 L 396.294,240.501 L 396.294,241.89 L 396.352,243.28 L 396.46,244.659 L 396.626,246.049 L 396.851,247.409 L 397.116,248.74 L 397.458,250.07 L 397.85,251.372 L 398.29,252.653 L 398.789,253.896 L 399.347,255.09 L 399.934,256.284 L 400.57,257.419 L 401.264,258.505 L 402.008,259.552 L 402.781,260.55 L 403.593,261.518 L 404.444,262.419 L 405.335,263.24 L 406.255,264.043 L 407.223,264.767 L 408.192,265.432 L 409.219,266.039"/>
    <path style="fill: none; fill-opacity:0; stroke-width: 2.48; stroke: #00b4ff" d="M 419.288 216.186 L 418.231,216.744 L 417.233,217.35 L 416.235,218.016 L 415.266,218.749 L 414.317,219.513 L 413.407,220.344 L 412.546,221.235 L 411.714,222.174 L 410.941,223.172 L 410.188,224.2 L 409.493,225.276 L 408.828,226.391 L 408.251,227.556 L 407.693,228.749 L 407.165,229.963 L 406.724,231.225 L 406.333,232.487 L 405.971,233.789 L 405.697,235.119 L 405.452,236.45 L 405.276,237.79 L 405.168,239.141 L 405.09,240.501 L 405.09,241.89 L 405.139,243.25 L 405.257,244.62 L 405.423,245.941 L 405.638,247.311 L 405.922,248.603 L 406.255,249.904 L 406.636,251.205 L 407.086,252.458 L 407.585,253.671 L 408.114,254.865 L 408.72,256.029 L 409.356,257.164 L 410.051,258.26 L 410.795,259.307 L 411.577,260.305 L 412.38,261.254 L 413.241,262.174 L 414.131,262.996 L 415.071,263.798 L 416.01,264.512 L 417.008,265.207 L 418.035,265.824"/>
  </g>
  <g>
    <ellipse style="fill: #0000ff" cx="518.25" cy="202.25" rx="9.25" ry="9.25"/>
    <ellipse style="fill: none; fill-opacity:0; stroke-width: 2; stroke: #000000" cx="518.25" cy="202.25" rx="9.25" ry="9.25"/>
    <ellipse style="fill: none; fill-opacity:0; stroke-width: 2; stroke: #000000" cx="518.25" cy="202.25" rx="9.25" ry="9.25"/>
  </g>
</svg>
